mtllib model_1.mtl
o model_1
v 42.614288330078125 0 32.786128997802734 
v 42.614288330078125 0 -31.75490379333496 
v -41.06745529174805 0 32.786128997802734 
v -41.06745529174805 0 -31.75490379333496 
vn -1.2357696127924785e-15 0.015493989922106266 0.00003384971205377951 
vn -1.2357696127924785e-15 0.015493989922106266 0.00003384971205377951 
vn -1.2357696127924785e-15 0.015493989922106266 0.00003384971205377951 
vn -1.2357696127924785e-15 0.015493989922106266 0.00003384971205377951 
vt 1.0000005960464478 0.12444800138473511 
vt 1.0000005960464478 0.8755514025688171 
vt 0 0.12444800138473511 
vt 0 0.8755514025688171 
s on 
f 1/1/1 2/2/2 3/3/3 
f 2/2/2 4/4/4 3/3/3 

